<?xml version="1.0" standalone="no"?>
<!DOCTYPE svg PUBLIC "-//W3C//DTD SVG 20010904//EN"
 "http://www.w3.org/TR/2001/REC-SVG-20010904/DTD/svg10.dtd">
<svg version="1.0" xmlns="http://www.w3.org/2000/svg"
 width="468pt" height="174pt" viewBox="0 0 468 174"
 preserveAspectRatio="xMidYMid meet">
<metadata>
Created by POTRACE VERSION, written by Peter Selinger 2001-2007
</metadata>
<g transform="translate(0,174) scale(0.013433,-0.013433)"
fill="#000000" stroke="none">
<path d="M24965 12655 c-22 -8 -58 -15 -80 -15 -22 0 -58 -5 -80 -11 -22 -5
-57 -14 -78 -20 -21 -5 -45 -13 -55 -18 -9 -5 -72 -30 -140 -57 -68 -26 -125
-51 -128 -56 -3 -4 -13 -8 -23 -8 -9 0 -57 -26 -106 -58 -50 -33 -122 -78
-161 -101 -40 -23 -105 -69 -145 -101 -46 -37 -87 -62 -109 -66 -19 -3 -60
-13 -90 -21 -30 -8 -91 -26 -135 -41 -44 -14 -114 -43 -155 -65 -41 -22 -87
-48 -102 -58 -14 -11 -31 -19 -36 -19 -5 0 -34 -16 -63 -36 -30 -20 -70 -52
-89 -70 -20 -19 -39 -34 -44 -34 -4 0 -37 -26 -72 -57 -36 -32 -101 -103 -145
-157 -45 -54 -97 -123 -116 -153 -19 -30 -59 -103 -88 -161 -30 -59 -61 -136
-70 -172 -9 -36 -20 -69 -24 -75 -5 -5 -13 -37 -20 -70 -6 -33 -11 -105 -12
-160 -1 -85 3 -112 26 -180 15 -44 36 -96 47 -115 11 -19 31 -56 46 -81 15
-25 32 -52 39 -60 7 -8 26 -31 43 -51 17 -20 55 -53 84 -72 30 -20 56 -42 60
-51 3 -8 10 -15 15 -15 5 0 47 -21 93 -48 46 -26 101 -55 123 -65 22 -9 78
-31 125 -48 47 -16 112 -39 145 -51 33 -11 85 -24 115 -29 30 -5 78 -13 105
-18 28 -6 81 -10 119 -10 38 -1 83 3 100 9 17 5 92 19 166 30 74 12 153 30
175 40 22 10 57 26 79 34 21 9 45 16 54 16 9 0 83 34 166 75 83 42 167 86 187
98 19 12 66 41 105 65 38 23 77 48 86 54 13 9 28 9 65 0 26 -6 85 -14 129 -18
56 -4 84 -3 88 5 4 6 5 20 1 30 -4 14 -21 23 -59 31 -30 6 -62 20 -72 31 -18
20 -18 21 7 42 14 12 75 64 135 114 60 51 126 112 146 135 20 24 74 84 118
133 44 50 102 122 127 160 26 39 75 117 109 174 35 57 74 126 87 155 14 28 35
74 47 101 11 28 32 88 46 135 14 47 32 108 40 135 8 28 19 91 25 140 5 50 7
119 4 155 -4 36 -13 94 -21 130 -8 35 -34 102 -57 149 -34 69 -59 103 -133
177 -61 61 -110 100 -145 117 -30 13 -76 35 -102 47 -27 11 -83 28 -125 36
-43 8 -122 17 -177 20 -55 2 -118 6 -140 9 -22 2 -58 -2 -80 -10z m465 -106
c36 -12 83 -30 105 -42 22 -11 70 -48 108 -81 37 -33 79 -78 94 -101 15 -22
44 -71 65 -108 26 -49 42 -95 54 -159 14 -78 15 -106 5 -197 -7 -58 -15 -130
-18 -160 -3 -31 -31 -115 -64 -198 -32 -79 -77 -176 -100 -216 -24 -39 -76
-124 -117 -187 -41 -63 -88 -131 -104 -150 -17 -19 -55 -64 -86 -100 -32 -35
-97 -104 -147 -153 -49 -49 -119 -113 -155 -141 -36 -29 -79 -60 -96 -69 -18
-9 -34 -23 -37 -32 -4 -9 -19 -15 -37 -15 -17 0 -76 16 -131 35 -56 19 -110
35 -120 35 -11 0 -43 12 -71 26 -28 14 -92 41 -142 60 -50 20 -125 52 -166 72
-41 20 -102 52 -135 71 -33 19 -97 65 -142 103 -44 38 -96 89 -115 114 -18 25
-44 59 -57 75 -16 20 -30 61 -42 121 -11 50 -21 130 -24 179 -5 71 -2 104 16
171 11 46 25 92 30 103 5 11 20 53 35 94 14 40 34 88 45 105 10 17 56 72 101
122 46 50 98 101 116 113 29 19 41 21 110 16 42 -4 86 -10 97 -15 11 -4 43
-16 70 -25 28 -10 70 -29 95 -43 25 -14 66 -46 93 -71 27 -25 63 -70 81 -101
18 -30 36 -68 40 -83 3 -15 20 -48 36 -74 17 -26 30 -52 30 -58 0 -6 14 -24
30 -40 l30 -29 0 29 c0 16 -4 42 -10 59 -5 17 -20 80 -34 139 -20 89 -30 115
-60 152 -20 24 -60 64 -89 88 -28 24 -83 60 -122 80 -38 20 -101 45 -139 57
-38 11 -75 20 -82 20 -7 0 -18 9 -24 19 -7 15 -6 24 6 36 9 9 29 24 43 33 14
9 36 25 48 36 12 10 30 24 41 30 11 6 35 19 53 30 19 10 45 29 59 42 14 13 57
35 95 48 39 14 86 32 105 41 19 9 61 29 93 46 32 16 69 29 81 29 13 0 45 7 72
16 27 8 94 21 149 27 63 8 132 9 185 4 47 -4 114 -17 150 -28z m-1805 -650 c4
-6 -6 -32 -22 -58 -17 -26 -44 -85 -62 -132 -18 -46 -41 -120 -52 -164 -13
-55 -19 -115 -18 -190 0 -73 5 -123 15 -150 8 -22 19 -52 23 -66 5 -14 32 -63
60 -109 28 -45 64 -92 79 -104 15 -11 52 -43 82 -71 30 -28 80 -68 111 -88 31
-20 92 -54 135 -76 44 -21 104 -50 134 -64 30 -14 84 -35 120 -48 36 -12 74
-29 85 -36 11 -7 25 -13 33 -13 7 0 25 -9 40 -20 15 -11 63 -34 107 -51 44
-17 118 -46 165 -63 47 -18 86 -39 88 -47 1 -8 -25 -30 -60 -51 -35 -20 -103
-55 -153 -79 -49 -23 -126 -54 -170 -69 -44 -15 -93 -33 -110 -38 -16 -6 -64
-20 -105 -32 -41 -11 -91 -20 -110 -20 -19 0 -51 -5 -70 -10 -19 -6 -105 -10
-190 -11 -103 0 -182 5 -235 16 -44 8 -96 21 -115 27 -19 6 -53 17 -76 24 -22
8 -56 26 -75 39 -19 14 -63 54 -98 88 -34 34 -72 78 -82 97 -11 19 -23 42 -28
50 -5 8 -27 56 -49 105 -23 50 -44 113 -48 140 -3 28 -8 108 -9 179 -2 107 2
147 21 225 13 53 37 141 53 195 17 55 38 111 49 125 10 15 31 51 46 81 16 30
45 80 65 110 20 30 87 106 148 167 62 62 143 133 180 158 38 24 73 44 80 45 6
0 15 -5 18 -11z"/>
<path d="M16220 11658 c-63 -5 -146 -10 -185 -11 -38 -2 -106 -11 -150 -21
-44 -10 -116 -29 -160 -43 -44 -13 -100 -34 -125 -47 -25 -12 -67 -35 -95 -51
-27 -15 -65 -42 -83 -59 -19 -17 -48 -53 -66 -81 -18 -27 -41 -63 -51 -80 -11
-16 -23 -57 -28 -90 -4 -33 -9 -76 -9 -95 0 -19 5 -70 11 -114 7 -43 18 -101
25 -130 8 -28 23 -79 35 -114 12 -35 26 -71 31 -80 6 -9 26 -51 45 -92 20 -41
51 -103 69 -137 18 -33 47 -80 64 -104 18 -24 32 -49 32 -57 0 -8 8 -26 18
-40 10 -15 24 -41 31 -59 7 -17 21 -39 32 -49 10 -9 19 -22 19 -27 0 -5 25
-45 57 -88 31 -44 60 -79 65 -79 4 0 8 16 8 36 0 21 -13 58 -31 92 -17 31 -38
64 -45 73 -8 8 -14 20 -14 26 0 6 -8 21 -19 34 -10 13 -27 40 -38 59 -10 19
-32 55 -47 80 -16 24 -60 105 -97 180 -38 74 -85 178 -105 230 -20 52 -42 128
-50 169 -7 40 -14 116 -16 170 -1 80 2 107 22 161 13 36 35 82 50 102 15 21
38 46 51 56 13 11 71 43 129 72 58 29 119 58 135 65 17 7 73 22 125 33 52 12
131 25 175 31 44 6 127 13 185 17 58 4 143 8 190 10 47 1 198 -2 336 -6 139
-5 289 -14 335 -19 46 -6 156 -18 244 -26 88 -9 205 -25 260 -36 55 -11 132
-29 170 -39 39 -11 81 -19 95 -19 14 1 86 -20 160 -46 74 -25 142 -52 150 -59
8 -7 38 -22 67 -34 28 -12 59 -22 67 -22 9 0 46 -17 83 -37 38 -21 95 -50 128
-66 33 -16 107 -56 165 -90 58 -33 148 -88 200 -122 52 -34 127 -83 165 -108
39 -26 102 -68 141 -95 39 -27 112 -83 162 -126 50 -42 94 -82 98 -87 3 -6 20
-19 38 -30 17 -10 64 -47 103 -81 40 -35 126 -116 190 -180 65 -64 141 -143
170 -175 29 -32 64 -72 78 -89 14 -18 25 -37 25 -42 0 -6 17 -30 38 -54 20
-24 55 -72 77 -106 22 -35 73 -113 114 -175 40 -62 75 -119 78 -127 3 -8 11
-28 18 -45 7 -16 34 -73 59 -125 25 -52 61 -140 81 -195 20 -55 42 -113 49
-130 7 -16 25 -73 40 -125 15 -52 34 -117 42 -145 8 -27 22 -93 30 -145 8 -52
22 -135 30 -185 9 -49 20 -117 26 -150 5 -33 11 -85 13 -115 2 -30 6 -188 9
-351 5 -245 3 -305 -9 -345 -8 -27 -15 -83 -15 -123 0 -41 -5 -113 -11 -160
-6 -48 -24 -125 -40 -173 -16 -47 -29 -95 -29 -105 0 -11 -16 -73 -35 -139
-19 -65 -41 -132 -49 -149 -7 -16 -24 -57 -36 -90 -13 -33 -40 -91 -60 -130
-20 -38 -60 -113 -89 -165 -29 -53 -76 -125 -104 -162 -29 -36 -72 -94 -97
-128 -25 -33 -97 -111 -160 -173 -63 -62 -149 -139 -190 -172 -41 -34 -122
-92 -180 -130 -58 -39 -118 -77 -135 -86 -16 -9 -78 -43 -136 -77 -59 -34
-112 -62 -117 -62 -6 0 -57 -20 -114 -44 -57 -24 -139 -57 -183 -74 -44 -16
-98 -35 -120 -40 -22 -6 -80 -23 -130 -38 -49 -14 -108 -29 -130 -33 -23 -4
-46 -10 -52 -14 -6 -4 -49 -12 -95 -17 -45 -6 -114 -15 -153 -21 -42 -7 -192
-12 -380 -11 -182 0 -339 5 -380 12 -38 6 -113 15 -165 19 -62 5 -128 19 -189
40 -51 17 -101 31 -110 31 -9 0 -27 7 -39 16 -22 15 -23 21 -19 98 2 44 10
133 16 196 6 63 13 144 16 180 2 36 11 112 19 170 8 58 22 148 30 200 8 52 19
108 25 124 7 16 16 54 21 85 5 31 18 88 31 126 12 39 27 97 33 130 6 33 16 69
22 80 6 11 18 47 28 80 9 33 21 74 27 90 6 17 22 71 35 120 13 50 31 110 39
135 8 25 30 97 49 160 18 63 43 157 55 208 12 51 29 112 38 135 8 23 26 85 40
137 14 52 29 115 35 140 5 25 15 65 23 90 8 25 21 79 30 120 9 41 30 131 45
200 16 69 36 159 44 200 8 41 22 113 31 160 10 47 19 112 21 145 3 33 9 80 14
105 5 25 12 77 16 115 3 39 15 126 25 195 10 69 28 215 39 325 11 110 24 236
30 280 5 44 10 139 10 210 1 72 5 177 10 235 9 95 8 107 -9 130 -10 14 -25 26
-34 28 -9 2 -28 -8 -42 -22 -16 -16 -25 -36 -25 -56 0 -16 -8 -56 -19 -87 -10
-32 -26 -94 -36 -138 -9 -44 -23 -102 -30 -130 -7 -27 -19 -97 -25 -155 -7
-58 -23 -145 -36 -195 -13 -49 -24 -105 -24 -123 0 -18 -13 -72 -29 -120 -15
-48 -38 -123 -49 -167 -12 -44 -44 -174 -73 -290 -28 -115 -57 -221 -64 -235
-7 -14 -27 -81 -44 -150 -17 -69 -40 -141 -50 -160 -10 -19 -21 -54 -25 -78
-3 -24 -18 -67 -32 -94 -14 -28 -32 -74 -40 -102 -8 -28 -19 -69 -25 -91 -5
-22 -29 -89 -53 -150 -24 -60 -51 -135 -61 -165 -9 -30 -22 -64 -29 -75 -7
-11 -32 -76 -54 -145 -23 -69 -49 -147 -58 -175 -8 -27 -37 -106 -64 -175 -27
-69 -58 -156 -68 -195 -11 -38 -25 -92 -31 -119 -6 -26 -20 -68 -31 -92 -11
-23 -20 -51 -20 -61 0 -10 -7 -43 -16 -73 -8 -30 -24 -100 -34 -155 -11 -55
-24 -127 -30 -160 -6 -33 -15 -109 -22 -170 -6 -60 -11 -130 -11 -155 0 -25 3
-101 8 -170 4 -69 14 -142 22 -164 7 -21 13 -51 13 -66 0 -15 9 -49 21 -74 11
-26 18 -54 15 -62 -3 -8 -13 -14 -21 -14 -9 0 -40 11 -68 24 -29 13 -63 27
-77 31 -14 4 -70 30 -124 57 -55 27 -127 65 -160 86 -34 20 -104 65 -156 101
-52 35 -115 82 -140 105 -25 23 -85 76 -135 117 -49 41 -173 157 -275 259
-102 102 -214 221 -250 264 -36 44 -93 118 -127 165 -34 47 -71 98 -82 113
-12 15 -37 57 -56 95 -20 37 -44 82 -55 98 -11 17 -25 41 -31 55 -6 14 -17 37
-25 51 -7 15 -20 51 -28 80 -8 30 -19 66 -25 82 -6 15 -18 69 -27 121 -13 76
-14 113 -5 202 7 76 18 128 37 174 14 36 39 90 55 121 16 30 43 69 60 85 17
16 39 41 48 55 9 15 39 45 67 67 28 22 84 56 125 76 41 19 103 40 139 47 36 6
88 13 117 16 44 5 66 0 145 -32 63 -26 112 -54 151 -88 31 -27 57 -55 57 -63
0 -8 11 -36 25 -63 15 -30 28 -81 35 -132 5 -46 14 -111 20 -143 5 -32 7 -63
3 -69 -3 -5 -7 -42 -8 -82 -1 -39 -9 -87 -18 -106 -9 -19 -19 -49 -22 -68 -4
-18 -21 -53 -39 -76 -17 -23 -53 -56 -81 -72 -27 -16 -51 -35 -53 -44 -1 -8 4
-23 11 -33 9 -12 26 -19 45 -19 17 0 56 15 88 34 31 19 89 63 128 98 59 53 79
80 122 163 35 68 54 122 64 174 8 49 11 106 7 162 -4 48 -12 105 -18 127 -6
22 -20 66 -31 97 -12 35 -41 81 -71 115 -27 32 -70 72 -95 88 -25 17 -59 38
-76 47 -17 9 -76 28 -131 43 -55 14 -113 31 -130 37 -16 5 -68 14 -115 19 -47
6 -92 9 -100 9 -8 0 -44 -3 -80 -6 -35 -3 -73 -12 -84 -20 -11 -8 -26 -14 -34
-14 -7 0 -39 -12 -70 -27 -31 -14 -75 -38 -97 -53 -22 -15 -63 -50 -92 -76
-29 -27 -64 -67 -79 -89 -15 -22 -40 -65 -57 -95 -16 -30 -38 -82 -48 -114
-11 -33 -22 -73 -25 -89 -2 -16 -10 -39 -16 -50 -7 -14 -8 -67 -4 -166 4 -80
13 -184 21 -231 7 -47 29 -128 48 -180 19 -52 47 -119 62 -147 16 -29 42 -67
57 -84 16 -17 43 -59 60 -93 17 -33 65 -108 107 -165 42 -58 108 -139 147
-180 39 -42 98 -108 131 -147 32 -39 93 -107 135 -150 42 -44 121 -124 175
-179 54 -55 112 -111 129 -125 17 -14 57 -48 90 -76 32 -28 99 -76 147 -107
48 -31 90 -57 92 -57 2 0 23 -13 47 -29 24 -16 106 -61 183 -100 78 -39 150
-71 161 -71 11 0 28 -6 39 -13 11 -8 49 -24 85 -37 36 -13 76 -30 90 -37 14
-7 29 -13 33 -13 4 0 29 -9 55 -21 26 -11 56 -24 67 -29 11 -5 40 -18 65 -28
33 -14 67 -20 125 -19 45 0 104 -7 135 -16 30 -8 120 -23 200 -31 80 -9 197
-23 260 -31 86 -12 183 -15 400 -12 157 2 337 10 400 16 63 7 131 14 150 16
19 2 69 10 110 19 41 9 104 22 140 30 36 8 99 24 140 35 41 11 95 26 120 34
25 7 56 18 70 24 14 6 52 18 85 28 33 10 74 24 90 31 17 7 71 30 120 50 50 21
153 70 230 109 77 39 172 92 212 119 39 26 74 54 77 62 3 8 16 14 29 14 14 0
31 7 38 17 8 9 55 47 104 84 50 37 129 107 176 156 47 48 104 113 126 143 22
30 48 62 57 69 10 8 55 71 100 140 45 69 99 154 119 187 21 34 49 88 63 120
14 33 37 84 51 114 13 30 29 64 34 75 5 11 23 61 40 110 16 50 34 108 39 130
5 22 16 67 24 100 8 33 24 103 35 155 10 52 24 133 30 180 6 47 16 164 22 260
6 102 8 242 4 335 -4 88 -13 219 -21 290 -7 72 -18 161 -23 198 -6 37 -13 72
-16 77 -3 5 -12 51 -20 102 -7 51 -23 125 -35 163 -12 39 -26 84 -30 100 -5
17 -35 108 -68 203 -33 94 -67 182 -75 195 -8 12 -27 54 -42 92 -15 39 -38 84
-50 101 -13 17 -28 48 -34 70 -6 21 -28 68 -50 104 -22 36 -50 83 -62 105 -12
22 -33 53 -46 69 -13 16 -32 45 -43 66 -10 20 -43 67 -72 103 -29 37 -78 99
-108 138 -30 39 -143 160 -250 268 -108 108 -231 225 -275 261 -44 35 -112 92
-151 125 -39 33 -118 90 -175 128 -57 37 -152 100 -211 140 -59 39 -158 104
-220 144 -62 39 -178 107 -258 151 -80 43 -163 82 -184 86 -22 4 -50 16 -63
26 -13 10 -58 33 -101 51 -42 17 -108 41 -147 52 -38 10 -80 21 -93 22 -13 2
-40 11 -60 21 -20 10 -64 23 -97 31 -33 7 -76 16 -95 19 -19 3 -44 10 -55 14
-11 5 -44 16 -74 25 -30 8 -66 15 -80 15 -14 0 -57 9 -96 19 -38 11 -144 29
-235 40 -91 12 -219 27 -285 33 -66 7 -257 12 -425 13 -168 0 -357 -3 -420 -7z"/>
<path d="M33619 10440 c-35 -4 -87 -23 -140 -50 -46 -24 -104 -53 -129 -66
-25 -12 -66 -40 -90 -61 -25 -21 -72 -58 -105 -83 -33 -24 -99 -85 -148 -134
-48 -50 -104 -112 -125 -139 -20 -26 -61 -77 -90 -114 -30 -37 -74 -99 -99
-137 -25 -39 -62 -96 -81 -126 -19 -30 -66 -100 -102 -156 -37 -55 -78 -119
-91 -143 -13 -24 -36 -64 -50 -90 -14 -25 -37 -65 -50 -87 -13 -23 -42 -73
-65 -111 -23 -39 -78 -144 -124 -234 -45 -90 -88 -170 -95 -178 -11 -11 -20
-11 -46 -2 -17 6 -43 11 -57 11 -13 0 -50 11 -81 24 -31 14 -80 30 -109 36
-29 7 -113 45 -187 85 -74 40 -166 96 -205 125 -38 28 -104 89 -146 133 -42
45 -87 101 -100 123 -14 23 -38 79 -55 125 -17 46 -35 89 -41 96 -6 7 -20 13
-32 13 -12 0 -32 -7 -45 -16 -21 -15 -23 -22 -19 -103 3 -79 6 -90 38 -133 18
-27 37 -48 42 -48 4 0 23 -24 41 -52 19 -29 51 -67 73 -85 21 -18 73 -58 114
-91 41 -32 100 -74 130 -94 30 -19 91 -53 135 -75 44 -23 100 -52 125 -67 25
-14 54 -26 66 -26 11 0 42 -11 69 -25 27 -13 71 -29 99 -35 28 -7 64 -15 80
-18 16 -4 34 -15 39 -24 8 -12 6 -32 -7 -75 -10 -32 -33 -98 -52 -148 -19 -49
-39 -99 -44 -110 -4 -11 -14 -36 -20 -55 -7 -19 -28 -78 -46 -130 -19 -52 -44
-129 -56 -170 -11 -41 -27 -106 -35 -145 -8 -38 -18 -95 -23 -125 -4 -30 -13
-102 -19 -160 -8 -83 -8 -132 4 -232 8 -70 17 -144 20 -165 4 -21 18 -76 32
-123 14 -47 31 -96 38 -110 7 -14 25 -51 40 -82 15 -31 33 -62 40 -68 7 -6 16
-22 19 -35 4 -14 23 -47 44 -75 21 -27 50 -73 65 -103 14 -29 38 -63 51 -76
17 -16 31 -21 45 -16 12 3 28 19 36 35 8 16 15 38 15 48 0 11 -14 46 -30 78
-17 32 -39 95 -50 139 -10 44 -24 107 -30 140 -6 33 -15 94 -21 135 -6 41 -12
113 -13 160 -1 47 1 146 5 220 5 86 17 175 33 245 14 61 33 133 41 160 8 28
19 59 25 70 5 11 30 81 55 155 26 74 55 163 65 197 10 35 35 102 56 150 20 49
48 114 61 145 14 31 31 59 38 61 6 3 62 1 122 -4 61 -5 232 -7 380 -5 172 2
278 8 291 15 11 6 45 11 76 11 30 0 67 5 83 11 15 7 75 18 133 25 58 7 133 17
168 23 34 5 98 21 142 36 44 15 82 31 85 36 4 5 18 9 31 9 14 0 64 14 111 30
47 17 96 39 110 50 14 11 29 20 34 20 5 0 59 28 121 62 62 34 141 82 176 106
34 24 94 81 131 126 38 44 82 108 98 141 17 33 36 85 43 115 7 30 16 68 21 84
5 16 9 83 9 150 -1 86 -5 128 -15 146 -8 14 -14 48 -15 76 0 33 -5 56 -15 64
-8 7 -15 24 -16 39 0 14 -13 51 -29 81 -15 30 -42 82 -59 115 -17 33 -51 89
-76 125 -26 36 -79 98 -118 138 -40 40 -103 94 -142 120 -38 25 -100 61 -137
79 -36 18 -79 33 -95 33 -15 0 -41 7 -57 15 -16 9 -59 20 -95 25 -36 5 -88 9
-116 8 -27 0 -75 -4 -106 -8z m336 -99 c44 -15 98 -36 120 -45 22 -9 61 -31
87 -49 26 -18 101 -86 166 -152 78 -79 126 -137 142 -170 12 -27 29 -57 35
-65 7 -8 18 -32 24 -52 7 -20 19 -42 27 -48 7 -7 14 -23 14 -36 0 -13 6 -27
14 -31 7 -4 16 -30 19 -58 3 -27 13 -110 22 -183 11 -94 13 -143 6 -165 -5
-18 -12 -59 -16 -92 -4 -33 -15 -79 -25 -102 -10 -23 -28 -53 -40 -65 -12 -13
-39 -46 -61 -74 -21 -29 -57 -67 -81 -86 -24 -19 -68 -50 -98 -69 -30 -19 -64
-39 -75 -46 -11 -6 -65 -33 -120 -61 -55 -28 -122 -60 -149 -71 -27 -12 -57
-21 -67 -21 -11 0 -47 -11 -80 -25 -33 -13 -93 -33 -132 -44 -40 -10 -110 -26
-157 -34 -47 -9 -130 -21 -185 -27 -55 -6 -145 -13 -200 -15 -55 -3 -167 -9
-250 -14 -85 -5 -217 -4 -303 1 -91 5 -168 14 -188 23 -31 13 -34 17 -28 42 4
15 15 44 25 63 9 19 36 78 60 130 23 52 97 205 164 340 67 135 136 267 154
294 17 28 31 54 31 59 0 4 13 27 29 50 15 23 41 66 55 96 15 29 56 95 90 145
34 50 84 123 110 161 26 39 71 94 99 123 29 30 77 77 107 105 30 29 70 67 89
85 19 18 50 42 70 52 20 10 62 38 94 63 33 25 82 53 110 61 29 9 72 20 97 25
25 5 61 9 80 10 19 1 71 -12 115 -28z"/>
<path d="M3354 10103 c-20 -19 -35 -48 -46 -88 -9 -33 -24 -130 -33 -215 -12
-107 -15 -195 -11 -285 3 -71 9 -186 14 -255 4 -69 14 -135 21 -148 7 -13 10
-30 7 -38 -3 -8 0 -49 6 -92 6 -42 12 -93 14 -112 1 -19 8 -69 13 -110 6 -41
14 -83 18 -95 4 -11 8 -36 9 -55 2 -19 7 -64 12 -100 5 -36 14 -78 20 -93 7
-16 12 -41 12 -56 0 -16 9 -48 19 -72 10 -24 22 -64 26 -89 4 -25 11 -50 16
-56 5 -6 13 -31 19 -55 5 -24 16 -74 23 -112 8 -37 19 -73 25 -80 5 -6 15 -32
22 -57 6 -25 22 -73 36 -108 13 -34 24 -71 24 -81 0 -10 8 -38 19 -62 10 -24
22 -68 25 -98 4 -30 16 -72 27 -95 10 -22 19 -53 19 -69 0 -15 8 -49 19 -75
10 -26 24 -65 31 -86 7 -22 18 -65 25 -95 7 -31 19 -81 27 -111 8 -30 20 -65
26 -77 7 -12 12 -34 12 -48 0 -14 5 -35 10 -45 6 -11 12 -32 14 -47 2 -15 9
-41 15 -58 6 -16 19 -59 30 -95 11 -36 22 -83 26 -105 4 -21 13 -52 21 -67 8
-15 14 -38 14 -51 0 -13 7 -37 14 -53 8 -16 20 -56 26 -89 6 -33 15 -85 19
-115 5 -30 16 -91 24 -135 9 -44 26 -145 38 -225 18 -125 21 -175 16 -365 -3
-154 -9 -235 -20 -270 -8 -27 -22 -80 -30 -116 -9 -37 -34 -104 -57 -150 -23
-46 -54 -106 -69 -133 -16 -26 -62 -82 -102 -123 -41 -41 -97 -91 -126 -110
-29 -19 -76 -44 -105 -55 -29 -11 -73 -26 -98 -34 -25 -8 -93 -17 -152 -21
-86 -5 -114 -3 -147 11 -23 9 -53 16 -66 16 -14 0 -55 14 -92 31 -38 18 -97
49 -133 70 -36 21 -90 60 -122 86 -31 27 -78 75 -105 108 -27 33 -57 73 -68
89 -11 16 -32 50 -47 75 -15 25 -34 61 -43 79 -8 19 -19 51 -25 71 -5 21 -21
55 -35 75 -14 20 -25 48 -25 61 0 13 -8 46 -19 72 -10 26 -25 82 -34 123 -8
41 -21 114 -28 162 l-12 87 50 88 c28 48 62 111 76 138 14 28 34 75 45 105 11
30 32 84 45 120 14 36 30 91 36 124 6 32 15 64 20 70 5 6 16 40 26 76 9 36 23
101 32 145 8 44 17 94 20 110 2 17 13 77 24 135 11 58 24 128 30 157 6 28 14
91 19 140 5 48 14 122 19 163 6 41 12 122 15 180 2 58 -2 143 -9 190 -6 47
-10 91 -7 98 2 7 -1 25 -7 40 -6 16 -13 123 -15 258 -3 152 -10 261 -21 320
-9 49 -25 114 -37 144 -11 30 -31 84 -44 119 -12 35 -32 73 -42 85 -11 11 -27
35 -36 53 -8 17 -52 63 -97 101 -63 54 -105 80 -178 111 -53 23 -123 46 -156
51 -34 6 -128 8 -215 4 -85 -3 -177 -11 -205 -19 -27 -7 -68 -17 -90 -23 -22
-6 -84 -26 -138 -45 -54 -19 -104 -40 -110 -46 -6 -6 -17 -11 -24 -11 -8 0
-26 -9 -41 -19 -15 -11 -47 -32 -72 -48 -25 -15 -58 -33 -74 -40 -15 -7 -42
-24 -60 -38 -17 -14 -56 -46 -86 -70 -30 -25 -77 -62 -105 -84 -27 -21 -99
-90 -159 -154 -59 -64 -137 -155 -172 -204 -34 -48 -69 -95 -77 -104 -7 -8
-31 -49 -54 -90 -22 -41 -47 -87 -56 -104 -8 -16 -30 -64 -47 -105 -18 -41
-40 -93 -50 -115 -10 -22 -33 -96 -51 -165 -17 -69 -36 -145 -40 -170 -4 -25
-12 -67 -18 -95 -5 -27 -15 -79 -21 -115 -6 -36 -15 -128 -21 -205 -7 -96 -7
-187 0 -290 5 -82 17 -213 26 -290 8 -77 22 -158 29 -180 8 -22 16 -65 19 -95
3 -30 20 -100 37 -155 17 -55 63 -164 102 -243 39 -79 79 -149 89 -156 10 -6
34 -36 53 -65 20 -30 56 -73 80 -97 25 -24 75 -63 113 -87 37 -25 93 -56 123
-71 30 -15 62 -31 70 -36 8 -5 30 -16 49 -25 19 -8 53 -18 75 -22 23 -3 52
-11 66 -18 14 -7 81 -18 150 -25 69 -6 136 -12 150 -12 14 0 56 5 93 11 38 6
78 18 90 26 12 8 32 15 45 15 13 0 42 10 65 21 23 12 58 30 77 41 19 10 64 33
99 50 34 17 75 42 89 55 14 13 33 22 41 21 9 -2 19 -17 24 -33 5 -17 15 -50
24 -75 8 -25 17 -58 20 -75 3 -16 11 -37 18 -45 7 -8 32 -53 55 -100 23 -47
60 -112 82 -145 23 -33 51 -69 62 -81 12 -11 46 -47 76 -79 30 -32 85 -78 122
-101 36 -24 77 -48 90 -53 13 -5 46 -23 73 -40 26 -17 71 -37 99 -46 28 -9 66
-20 83 -26 18 -6 56 -14 85 -20 29 -5 89 -15 133 -22 46 -7 167 -12 283 -11
168 1 210 4 245 19 23 9 71 31 107 48 36 18 90 51 121 74 31 23 71 59 89 79
17 20 36 47 42 60 6 13 19 26 30 30 10 3 29 27 42 52 13 26 40 74 60 106 20
33 36 67 36 75 0 9 7 29 15 44 8 15 24 62 36 105 12 42 26 113 32 157 5 44 10
186 10 315 0 129 -6 273 -12 320 -7 47 -19 126 -26 175 -8 50 -19 115 -24 145
-5 30 -15 75 -21 100 -7 25 -23 88 -36 140 -14 52 -29 109 -34 125 -5 17 -12
50 -16 75 -4 24 -15 67 -26 94 -10 28 -18 60 -18 71 0 11 -18 75 -40 143 -21
67 -44 148 -49 179 -6 31 -18 64 -26 73 -8 9 -15 30 -15 46 -1 16 -8 47 -16
69 -9 22 -22 65 -29 95 -8 30 -19 73 -25 95 -7 22 -18 47 -25 55 -7 8 -15 36
-18 62 -4 26 -11 56 -17 65 -5 10 -18 45 -29 78 -10 33 -22 76 -26 95 -4 19
-13 46 -20 60 -7 14 -18 41 -24 60 -7 19 -19 58 -27 85 -8 28 -19 70 -23 95
-5 25 -15 61 -21 80 -7 19 -17 43 -22 54 -5 10 -16 48 -25 85 -8 36 -21 98
-28 136 -8 39 -21 91 -30 115 -9 25 -17 65 -20 90 -2 25 -8 68 -13 95 -5 28
-14 64 -20 80 -6 17 -13 71 -16 120 -3 50 -12 124 -20 165 -8 41 -14 84 -15
95 0 11 -3 117 -6 235 -3 131 0 244 6 290 6 41 12 107 13 145 1 39 7 88 13
110 7 22 22 55 33 73 11 17 28 32 37 32 10 0 42 -9 70 -19 29 -10 65 -28 80
-39 15 -11 52 -32 82 -47 29 -14 75 -42 102 -61 27 -19 70 -49 97 -67 26 -19
90 -63 142 -98 52 -36 131 -91 175 -122 44 -31 136 -87 205 -125 69 -39 166
-91 215 -118 50 -26 119 -68 155 -91 36 -24 74 -42 85 -41 14 2 20 11 20 27 0
19 -11 31 -47 50 -25 14 -54 33 -65 42 -10 9 -25 19 -33 23 -8 3 -28 15 -45
26 -16 11 -39 24 -50 29 -11 5 -61 33 -111 62 -50 30 -128 81 -173 114 -45 33
-110 82 -144 109 -34 27 -91 68 -127 92 -36 24 -103 71 -150 105 -47 33 -114
80 -150 104 -36 23 -99 59 -141 78 -43 20 -114 43 -159 51 -45 9 -85 16 -89
16 -4 0 -20 -12 -37 -27z m-1186 -1284 c48 -11 115 -36 160 -61 42 -22 106
-68 142 -100 36 -33 76 -81 89 -106 13 -26 29 -51 36 -57 7 -5 26 -53 43 -105
16 -52 33 -123 37 -157 6 -54 4 -63 -12 -71 -10 -5 -36 -13 -58 -16 -22 -4
-50 -13 -62 -19 -12 -7 -33 -28 -47 -47 -14 -19 -42 -62 -62 -95 -20 -33 -40
-73 -45 -90 -4 -16 -17 -59 -29 -95 -11 -36 -26 -78 -31 -95 -6 -16 -21 -73
-33 -125 -13 -52 -28 -123 -35 -156 -6 -34 -22 -97 -36 -140 -13 -44 -29 -106
-34 -139 -6 -33 -18 -91 -27 -130 -8 -38 -22 -101 -30 -140 -8 -38 -23 -98
-34 -133 -11 -34 -24 -88 -30 -120 -5 -31 -16 -97 -25 -147 -8 -49 -22 -139
-30 -200 -8 -60 -20 -166 -26 -235 -6 -69 -12 -179 -14 -245 -1 -66 4 -160 11
-210 7 -49 15 -121 19 -160 4 -50 2 -74 -7 -85 -7 -9 -40 -36 -73 -61 -33 -25
-82 -62 -108 -82 -27 -20 -54 -37 -61 -37 -7 0 -40 -11 -74 -25 -33 -13 -82
-29 -108 -35 -26 -6 -79 -13 -118 -16 -38 -3 -73 -7 -77 -9 -4 -3 -52 1 -106
9 -59 8 -118 23 -144 36 -24 13 -81 47 -125 76 -45 30 -99 74 -120 98 -22 25
-58 68 -81 98 -23 29 -54 76 -69 103 -14 28 -32 57 -39 65 -7 8 -19 35 -25 60
-7 25 -20 61 -30 80 -9 19 -20 53 -24 74 -4 21 -14 49 -23 62 -8 13 -12 28 -8
33 3 6 -1 36 -10 68 -9 32 -21 90 -26 128 -5 39 -15 131 -23 205 -8 74 -15
225 -15 335 0 110 4 263 9 340 4 77 13 183 19 235 6 52 16 104 21 115 5 11 16
63 24 115 8 52 22 124 29 160 8 36 29 104 46 152 17 49 31 93 31 100 0 6 32
70 72 142 39 72 85 151 102 176 16 25 50 69 75 99 25 29 74 83 109 120 34 36
62 69 62 73 0 4 19 20 43 34 23 15 60 42 82 61 22 19 65 54 95 78 30 24 109
71 175 105 67 33 127 60 134 60 7 0 22 6 34 12 12 7 63 22 112 34 58 13 127
21 195 21 71 1 132 -5 188 -18z m460 -911 c6 -13 16 -40 22 -60 6 -21 12 -75
13 -120 0 -46 -3 -105 -7 -133 -4 -27 -12 -61 -17 -75 -5 -14 -16 -61 -24
-105 -7 -44 -24 -123 -36 -175 -12 -52 -34 -135 -49 -185 -16 -49 -38 -115
-50 -145 -12 -30 -32 -86 -45 -125 -13 -38 -30 -83 -39 -100 -9 -16 -16 -42
-16 -57 0 -15 4 -29 9 -32 5 -4 17 -3 26 0 9 4 25 27 36 53 11 25 29 63 40 83
10 20 19 46 19 58 0 12 7 35 16 51 8 17 27 65 40 107 14 43 33 95 44 117 10
22 23 72 30 110 6 39 18 102 26 140 7 39 15 86 16 105 2 23 9 36 20 38 12 2
19 -7 26 -35 5 -21 8 -76 6 -123 -2 -47 -6 -120 -9 -164 -3 -43 -12 -122 -21
-175 -9 -53 -20 -121 -25 -151 -4 -30 -15 -91 -24 -135 -9 -44 -23 -114 -31
-155 -9 -41 -19 -91 -24 -110 -4 -19 -19 -73 -32 -120 -14 -47 -33 -116 -43
-155 -10 -38 -31 -100 -46 -136 -15 -37 -30 -81 -34 -98 -3 -17 -11 -34 -17
-37 -6 -4 -21 -30 -34 -60 -13 -29 -33 -58 -44 -64 -12 -7 -23 -10 -25 -8 -1
2 -8 53 -16 113 -7 61 -12 202 -12 316 1 114 6 280 12 370 7 90 18 198 26 239
8 41 19 116 25 165 6 50 16 111 21 136 6 26 12 73 14 105 2 33 11 91 19 129 7
39 21 108 30 155 10 47 23 108 31 135 8 28 24 79 35 115 12 36 27 85 34 110 7
25 20 60 30 78 9 17 22 32 30 32 7 0 18 -10 24 -22z m-150 -3137 c20 -11 71
-58 112 -106 41 -48 88 -103 103 -123 16 -21 48 -48 73 -62 24 -14 46 -31 49
-37 2 -8 -4 -13 -15 -13 -11 0 -39 8 -62 17 -24 9 -60 27 -80 40 -21 13 -42
23 -48 23 -6 0 -44 25 -85 55 -41 30 -92 78 -115 106 -22 28 -40 57 -40 66 0
8 5 23 10 34 6 11 21 19 36 19 14 0 41 -9 62 -19z"/>
<path d="M29454 9352 c-18 -9 -43 -30 -56 -47 -14 -16 -33 -44 -42 -60 -10
-17 -32 -41 -50 -53 -29 -20 -37 -21 -121 -12 -50 5 -184 14 -299 21 -116 6
-243 8 -284 5 -40 -4 -84 -11 -98 -16 -19 -8 -24 -17 -24 -44 0 -33 3 -36 83
-74 45 -22 109 -50 142 -62 33 -12 101 -35 150 -50 50 -16 116 -36 148 -45 32
-9 60 -22 64 -30 3 -9 -20 -44 -58 -89 -35 -40 -99 -115 -141 -167 -42 -52
-98 -121 -124 -154 -27 -33 -72 -100 -101 -148 -30 -49 -64 -110 -78 -136 -13
-26 -33 -75 -44 -109 -12 -34 -24 -103 -27 -154 -4 -51 -7 -98 -7 -103 0 -6
14 -48 32 -94 27 -70 45 -98 109 -168 42 -46 99 -97 126 -114 28 -16 83 -49
122 -73 39 -24 98 -57 130 -74 32 -16 90 -45 127 -63 66 -31 72 -32 195 -32
70 1 179 8 242 17 63 9 149 25 190 35 41 10 88 24 103 30 16 6 41 11 56 11 15
0 49 11 77 24 27 13 74 36 104 50 30 14 81 47 113 73 38 31 73 72 97 113 21
36 45 89 54 119 9 30 16 79 16 109 0 31 -7 78 -15 106 -8 28 -22 77 -31 108
-9 34 -30 75 -50 99 -19 22 -34 47 -34 54 0 7 -9 23 -19 37 -11 13 -16 29 -13
35 4 5 17 15 29 21 12 7 77 16 145 22 68 6 155 15 193 21 39 6 88 20 110 31
22 11 50 30 63 41 14 13 22 32 22 52 0 26 -11 42 -52 81 -29 28 -69 56 -88 63
-19 7 -44 18 -55 23 -11 6 -65 27 -120 45 -55 19 -118 38 -141 43 -22 5 -51
13 -65 19 -13 6 -58 17 -99 26 -41 8 -97 23 -125 34 -27 11 -93 31 -145 44
-52 14 -153 39 -225 57 -71 17 -141 32 -155 34 -14 2 -43 10 -65 17 -24 8 -41
21 -43 32 -2 10 -1 30 2 43 4 14 15 33 26 44 19 19 34 19 487 13 336 -4 493
-2 558 6 50 7 100 19 112 26 14 9 20 21 16 33 -2 11 -14 24 -26 29 -12 5 -92
11 -177 12 -85 2 -173 4 -195 5 -22 2 -177 8 -345 15 -259 11 -307 16 -318 29
-7 9 -9 23 -6 32 4 8 12 32 17 52 10 35 9 40 -18 68 -16 16 -34 30 -39 30 -6
-1 -25 -9 -42 -18z m-341 -298 c44 -4 71 -12 74 -21 3 -7 0 -20 -7 -28 -7 -8
-29 -15 -49 -15 -20 0 -69 9 -110 20 -41 11 -82 20 -90 20 -9 0 -22 4 -30 9
-8 5 -10 14 -6 21 6 9 28 11 79 7 39 -4 102 -9 139 -13z m422 -253 c50 -12
122 -28 160 -36 39 -7 104 -25 145 -39 41 -14 83 -26 95 -26 11 0 49 -8 85
-19 36 -11 103 -29 150 -41 47 -12 94 -27 105 -34 11 -7 38 -17 60 -24 22 -6
72 -21 110 -32 39 -12 94 -38 123 -58 30 -20 58 -45 64 -56 7 -13 6 -21 -3
-27 -8 -5 -25 -9 -39 -9 -14 0 -47 -7 -74 -15 -37 -11 -112 -16 -300 -18 -241
-2 -253 -1 -292 20 -23 12 -68 27 -100 34 -39 8 -168 13 -372 14 -172 1 -315
4 -318 7 -3 3 14 41 37 84 23 44 56 107 75 140 18 34 45 85 60 113 l26 53 56
-5 c32 -2 98 -14 147 -26z m-85 -527 c30 -3 165 -8 300 -13 200 -6 251 -11
280 -25 19 -9 44 -25 55 -34 11 -10 29 -31 41 -47 11 -17 35 -57 54 -90 18
-33 39 -67 45 -75 7 -8 12 -22 13 -30 0 -8 5 -44 11 -80 6 -36 11 -87 11 -113
0 -31 -11 -74 -31 -122 -24 -59 -41 -83 -84 -120 -30 -25 -71 -53 -92 -61 -21
-9 -49 -24 -63 -34 -14 -10 -52 -26 -85 -35 -33 -9 -96 -25 -140 -35 -44 -11
-123 -25 -175 -32 -52 -8 -142 -13 -200 -12 -74 1 -128 8 -185 23 -44 12 -104
33 -134 47 -35 16 -78 49 -122 94 -57 59 -69 78 -79 122 -6 29 -14 89 -17 133
-4 71 -2 90 27 174 17 52 49 136 70 187 22 51 49 109 61 129 12 20 36 42 53
50 24 11 64 13 181 9 83 -3 175 -8 205 -10z"/>
<path d="M28106 9222 c-3 -5 -19 -12 -36 -16 -17 -3 -51 -19 -75 -36 -25 -17
-45 -35 -45 -39 0 -5 -16 -26 -35 -47 -19 -22 -59 -72 -88 -112 -28 -40 -71
-98 -94 -130 -24 -31 -74 -115 -112 -187 -38 -71 -101 -206 -140 -298 -39 -92
-71 -172 -71 -177 0 -5 -16 -42 -35 -83 -19 -41 -35 -85 -35 -99 0 -14 -7 -45
-15 -69 -9 -23 -18 -90 -22 -147 -4 -75 -10 -105 -20 -109 -8 -3 -29 12 -50
37 -20 23 -54 74 -75 114 -21 39 -53 103 -73 141 -19 39 -41 81 -48 95 -8 14
-31 75 -52 135 -20 61 -41 126 -47 145 -5 19 -15 58 -20 87 -10 45 -8 58 10
102 12 27 22 62 22 78 0 16 7 39 16 51 11 16 16 49 17 110 1 54 -3 96 -11 109
-7 13 -30 32 -52 43 -22 11 -50 20 -63 20 -16 0 -42 -18 -76 -52 l-52 -51 -35
16 c-19 9 -52 17 -73 17 -26 0 -44 -7 -60 -24 -12 -13 -24 -39 -28 -59 -4 -30
-1 -42 21 -67 20 -25 26 -42 26 -80 0 -38 -8 -62 -37 -113 -21 -35 -65 -101
-98 -146 -33 -46 -79 -106 -102 -134 -23 -29 -77 -104 -119 -167 -42 -63 -84
-126 -94 -140 -9 -14 -25 -41 -35 -60 -9 -19 -28 -46 -41 -60 -12 -14 -27 -45
-33 -70 -6 -25 -10 -65 -10 -90 0 -25 6 -54 14 -64 8 -11 15 -27 15 -37 0 -9
15 -28 34 -43 26 -19 46 -26 80 -26 39 0 55 7 103 45 32 24 103 95 158 156 55
61 115 134 133 162 18 28 59 81 90 119 31 37 63 68 70 68 6 0 19 -8 27 -17 9
-10 42 -52 75 -93 32 -41 78 -99 102 -129 24 -29 61 -72 83 -95 22 -24 60 -55
85 -70 25 -16 85 -56 135 -90 75 -51 90 -66 96 -94 4 -19 18 -55 32 -80 14
-26 28 -58 32 -72 4 -14 27 -52 50 -85 24 -33 74 -93 111 -133 47 -51 84 -81
121 -98 44 -21 72 -25 149 -27 63 -1 98 3 106 11 9 9 10 17 2 30 -6 9 -50 28
-97 43 -52 16 -102 39 -126 58 -26 21 -51 55 -70 94 -16 34 -32 86 -36 115 -5
40 -3 58 9 77 12 18 25 25 50 25 19 0 68 12 111 26 42 14 86 23 98 20 12 -3
47 8 84 26 35 17 70 39 77 50 8 11 12 27 9 34 -3 8 -15 17 -28 20 -12 3 -45
-2 -71 -11 -27 -10 -76 -21 -109 -27 -33 -5 -97 -12 -142 -15 -68 -4 -84 -2
-89 10 -3 9 0 26 8 39 7 13 18 50 25 83 6 33 19 89 28 125 9 36 23 103 31 150
7 47 18 93 24 103 6 9 17 36 24 60 8 23 18 59 22 81 4 21 27 93 51 160 24 66
57 157 72 201 16 44 49 125 73 180 25 55 52 115 62 133 9 18 40 66 67 107 28
41 67 88 86 105 l34 31 30 -26 c17 -14 37 -25 45 -25 8 0 20 11 26 25 8 19 8
35 0 63 -7 21 -23 49 -37 62 -19 18 -40 25 -84 28 -32 2 -61 0 -65 -6z"/>
<path d="M24135 8680 c-49 -10 -115 -27 -145 -39 -30 -12 -66 -29 -80 -39 -14
-10 -45 -28 -70 -40 -25 -12 -70 -47 -102 -77 -36 -36 -69 -83 -92 -129 -28
-57 -36 -85 -36 -128 0 -30 9 -88 19 -129 11 -41 35 -107 55 -148 19 -40 41
-81 49 -90 7 -9 19 -29 26 -46 7 -16 21 -38 32 -50 11 -11 54 -63 95 -115 41
-52 118 -137 171 -187 52 -51 99 -93 104 -93 5 0 35 -24 67 -52 31 -29 79 -69
106 -88 26 -19 64 -49 84 -66 21 -17 62 -48 92 -69 30 -21 74 -54 97 -74 23
-20 42 -42 43 -50 0 -11 -16 -13 -90 -7 -50 4 -101 11 -113 16 -12 6 -65 15
-117 20 -52 6 -104 11 -115 11 -10 0 -24 4 -30 8 -5 5 -56 18 -112 30 -56 12
-114 21 -130 21 -15 0 -59 7 -98 16 -38 8 -110 27 -160 41 -49 13 -113 31
-141 38 -28 8 -79 31 -113 51 -36 21 -67 48 -72 61 -5 15 -5 40 1 66 5 23 10
50 10 60 0 12 -8 17 -29 17 -16 0 -37 -3 -46 -6 -9 -4 -27 -29 -42 -57 -23
-47 -24 -55 -14 -102 6 -28 20 -65 31 -83 11 -18 30 -37 42 -42 13 -5 59 -22
103 -39 44 -16 112 -41 151 -56 40 -14 94 -30 120 -34 27 -5 101 -22 164 -38
63 -17 160 -40 215 -53 55 -12 121 -28 146 -35 26 -8 84 -21 130 -30 46 -9
107 -23 134 -31 28 -7 90 -18 138 -24 49 -6 97 -8 107 -5 10 3 21 1 24 -4 4
-5 37 -12 74 -16 37 -4 91 -13 121 -21 48 -14 55 -14 72 2 10 9 23 32 30 51 6
19 8 44 5 56 -4 12 -28 37 -54 56 -26 19 -103 73 -172 119 -69 47 -141 98
-160 114 -19 16 -84 66 -145 112 -60 46 -157 133 -215 193 -58 60 -114 121
-125 135 -12 13 -45 60 -74 104 -30 43 -67 110 -82 149 -16 38 -29 77 -29 85
0 9 -6 24 -14 35 -7 11 -15 57 -18 105 -4 66 -1 97 13 139 11 29 40 83 66 119
27 36 62 79 79 96 17 17 77 54 135 83 70 35 119 53 149 54 25 2 73 -1 107 -5
45 -6 67 -14 84 -32 17 -18 23 -37 24 -77 1 -28 -2 -66 -5 -83 -4 -17 -3 -39
2 -48 5 -9 20 -16 33 -16 14 0 32 8 41 18 8 9 28 37 44 62 22 33 30 57 30 92
0 38 -6 54 -30 81 -16 19 -56 47 -87 62 -32 15 -71 34 -87 42 -16 7 -50 16
-75 19 -25 3 -57 9 -71 14 -14 5 -61 11 -105 13 -54 3 -109 -1 -170 -13z"/>
<path d="M13155 8185 c-5 -2 -49 -15 -96 -30 -73 -22 -96 -35 -145 -79 -33
-29 -69 -73 -80 -97 -12 -24 -24 -63 -28 -86 -5 -35 -3 -44 12 -52 12 -7 26
-6 43 2 13 7 35 34 49 61 13 28 41 66 61 86 20 20 52 43 71 52 18 9 53 22 78
30 25 7 72 13 105 12 33 0 91 -3 130 -7 52 -6 86 -17 135 -43 36 -20 101 -60
146 -90 44 -29 86 -65 94 -79 8 -14 35 -41 62 -60 29 -22 48 -43 48 -55 0 -10
9 -43 19 -72 11 -29 23 -69 26 -88 5 -26 -1 -54 -23 -109 -24 -58 -44 -89 -94
-139 -34 -35 -92 -81 -128 -102 -36 -21 -101 -54 -145 -74 -44 -20 -96 -45
-115 -55 -19 -10 -60 -24 -90 -30 -30 -7 -75 -19 -100 -27 -25 -8 -67 -17 -95
-20 -27 -4 -59 -11 -70 -17 -10 -5 -78 -16 -150 -23 -71 -8 -204 -17 -295 -20
-109 -4 -174 -3 -192 5 l-28 10 1 191 c0 105 -3 195 -6 200 -4 6 -10 59 -15
118 -5 59 -11 130 -14 157 -4 28 -20 78 -38 113 -17 35 -43 72 -56 83 -14 10
-36 19 -51 19 -14 0 -43 -5 -64 -11 -32 -9 -41 -18 -58 -55 -10 -25 -19 -64
-19 -87 0 -23 -7 -67 -15 -97 -8 -30 -20 -86 -26 -125 -6 -38 -12 -101 -14
-140 -2 -38 -6 -126 -10 -194 -3 -69 -9 -129 -12 -134 -3 -5 -38 -7 -82 -3
-42 3 -103 10 -136 15 -33 5 -94 18 -135 29 -41 11 -95 23 -120 27 -25 4 -61
13 -80 20 -19 7 -80 23 -135 35 -55 12 -109 28 -120 35 -11 7 -36 16 -55 20
-19 4 -64 16 -100 27 -36 11 -92 30 -125 43 -33 13 -96 34 -140 49 -44 14
-116 38 -160 55 -44 16 -106 41 -138 55 -33 14 -78 31 -100 37 -23 6 -71 24
-107 41 -36 17 -74 34 -85 39 -11 4 -49 16 -85 25 -36 9 -92 23 -125 31 -33 7
-107 21 -165 29 -58 8 -129 15 -159 15 -38 1 -62 -5 -80 -19 -14 -10 -27 -28
-29 -38 -2 -11 7 -30 20 -43 13 -13 46 -37 73 -55 28 -17 68 -38 90 -48 22 -9
74 -30 115 -47 41 -17 109 -38 150 -46 41 -8 104 -24 140 -35 36 -11 110 -29
165 -41 55 -11 136 -31 180 -44 44 -13 114 -34 155 -45 41 -12 107 -37 145
-55 39 -18 87 -40 109 -49 21 -9 51 -16 67 -16 15 0 40 4 54 10 18 7 41 6 73
-1 26 -6 67 -17 92 -25 25 -8 92 -23 150 -33 58 -11 139 -27 180 -36 41 -9
100 -21 130 -27 30 -5 69 -11 85 -13 17 -2 80 -15 140 -29 70 -17 115 -32 123
-43 11 -14 12 -49 8 -158 -4 -77 -11 -187 -17 -245 -5 -58 -14 -145 -20 -195
-6 -49 -17 -112 -25 -139 -8 -27 -14 -72 -14 -98 0 -27 -5 -58 -10 -68 -6 -11
-17 -66 -25 -122 -9 -57 -24 -132 -35 -168 -10 -36 -22 -85 -25 -110 -4 -25
-17 -81 -30 -125 -13 -44 -31 -118 -40 -165 -9 -47 -21 -103 -26 -125 -4 -22
-17 -78 -28 -125 -10 -47 -29 -120 -41 -164 -11 -43 -20 -92 -18 -110 2 -23 8
-32 25 -34 15 -2 32 6 47 23 14 15 28 41 31 58 4 18 14 43 22 55 8 13 23 47
33 75 10 29 30 84 44 122 14 39 30 79 35 90 5 11 32 70 60 130 28 61 58 137
66 170 9 32 26 79 39 104 13 25 49 111 79 191 30 80 69 190 85 245 17 55 42
138 57 185 14 47 32 119 40 160 7 41 20 104 28 140 8 36 24 108 36 160 11 52
23 117 27 143 5 35 13 52 30 63 19 13 30 14 58 4 20 -6 41 -8 47 -4 6 3 84 6
173 5 125 -2 188 3 281 19 66 11 136 26 155 32 19 6 44 11 55 10 10 0 25 4 31
9 7 6 49 19 92 30 44 10 114 35 156 54 43 19 83 35 89 35 7 0 28 11 47 24 19
13 46 27 59 31 14 4 48 23 75 43 28 19 78 57 112 84 33 26 78 71 99 99 21 28
49 82 63 121 23 66 24 76 14 167 -8 74 -18 113 -42 165 -18 38 -52 88 -79 114
-26 26 -74 70 -107 98 -32 28 -84 66 -114 85 -30 20 -82 47 -115 61 -33 14
-82 30 -110 36 -27 6 -82 16 -122 22 -39 5 -84 10 -100 9 -15 0 -32 -2 -38 -4z"/>
<path d="M22615 8117 c-39 -19 -97 -56 -130 -84 -33 -27 -112 -108 -176 -179
-63 -71 -128 -147 -145 -169 -16 -22 -31 -42 -34 -45 -3 -3 -53 -61 -110 -130
-58 -69 -123 -148 -145 -175 -23 -28 -52 -65 -64 -84 -13 -18 -33 -43 -43 -55
-11 -11 -37 -43 -59 -69 -22 -27 -56 -74 -76 -105 -20 -32 -46 -76 -59 -100
-13 -24 -33 -78 -44 -120 -17 -59 -20 -92 -16 -140 4 -34 9 -75 12 -91 3 -16
27 -51 53 -78 28 -31 83 -70 141 -103 52 -29 107 -61 122 -71 21 -15 46 -19
106 -19 55 0 83 4 91 14 6 7 9 21 5 29 -3 9 -30 25 -60 37 -30 11 -58 20 -62
20 -4 1 -22 14 -41 30 -32 27 -33 31 -26 77 3 26 27 97 53 157 25 61 77 160
115 220 38 61 108 170 155 241 47 72 128 202 180 290 52 88 111 183 131 210
20 28 57 77 82 110 24 33 52 73 62 88 17 28 20 29 70 23 47 -6 55 -4 74 16 11
13 23 39 26 59 3 20 15 57 26 82 12 25 21 56 21 69 0 13 -11 30 -23 39 -12 9
-40 19 -62 22 -22 4 -49 9 -60 12 -12 3 -49 -9 -90 -28z"/>
<path d="M8816 7640 c-16 -5 -40 -19 -54 -32 -13 -13 -37 -50 -52 -84 -15 -33
-35 -92 -43 -130 -9 -38 -19 -100 -23 -139 -4 -38 -11 -78 -15 -87 -5 -9 -11
-39 -14 -65 -2 -26 -12 -95 -20 -153 -9 -58 -19 -123 -24 -145 -5 -22 -14 -65
-20 -95 -6 -30 -13 -73 -16 -95 -3 -22 -11 -67 -19 -100 -8 -33 -22 -82 -31
-110 -9 -27 -26 -72 -37 -100 -12 -27 -27 -70 -34 -95 -7 -25 -22 -70 -34
-100 -12 -30 -35 -91 -51 -135 -16 -44 -33 -88 -39 -97 -5 -10 -10 -23 -10
-30 0 -7 -7 -26 -15 -42 -9 -17 -31 -66 -50 -110 -19 -44 -35 -84 -35 -89 0
-5 -16 -41 -35 -81 -19 -40 -35 -82 -35 -92 0 -10 -9 -32 -20 -49 -11 -16 -20
-42 -20 -57 0 -16 9 -37 19 -47 11 -11 41 -23 67 -27 29 -4 66 -2 95 5 41 11
52 10 71 -3 12 -9 32 -16 45 -16 12 0 37 15 55 33 18 18 54 58 79 88 25 30 80
100 123 156 42 56 96 121 119 145 23 24 74 83 112 133 39 49 81 101 94 115 13
14 35 43 50 65 14 22 40 53 56 69 17 16 37 39 45 51 8 12 42 45 75 74 33 28
70 51 82 51 13 0 38 -15 56 -32 18 -18 48 -53 65 -78 18 -25 49 -67 68 -93 20
-26 57 -78 82 -116 26 -37 69 -96 97 -132 27 -35 97 -113 155 -172 58 -60 134
-128 170 -151 36 -24 108 -66 161 -94 53 -29 103 -52 111 -52 8 0 71 -18 139
-41 68 -22 156 -44 195 -49 49 -6 103 -5 172 4 57 8 110 20 123 30 13 9 30 16
39 16 8 0 50 18 92 39 43 21 94 53 115 70 21 18 54 47 74 65 22 19 41 48 48
71 9 32 8 42 -4 54 -13 13 -17 13 -32 -1 -10 -8 -43 -32 -73 -53 -30 -21 -59
-44 -63 -52 -4 -7 -13 -13 -19 -13 -7 0 -43 -16 -82 -37 -39 -20 -93 -42 -121
-50 -27 -7 -93 -16 -145 -19 -91 -6 -100 -5 -205 31 -60 20 -146 57 -190 82
-44 25 -122 81 -174 124 -51 44 -106 96 -123 117 -16 20 -73 82 -127 137 -54
55 -102 107 -107 116 -5 10 -45 56 -89 105 -44 48 -104 113 -133 145 -29 31
-70 69 -90 83 -21 14 -60 32 -87 41 -28 8 -78 15 -112 15 -57 0 -65 -3 -122
-46 -33 -25 -101 -94 -151 -154 -49 -59 -90 -112 -90 -116 0 -5 -35 -46 -78
-91 -43 -46 -83 -83 -90 -83 -7 0 -12 5 -12 11 0 6 9 28 20 48 10 20 37 80 60
133 22 53 40 103 40 110 0 7 13 38 29 68 16 31 34 78 39 105 6 28 15 66 20 85
5 19 28 114 50 211 23 96 49 229 58 295 8 65 18 139 21 164 4 25 6 83 6 130 0
47 -1 146 -2 220 -2 94 -7 140 -16 150 -7 8 -15 24 -17 35 -3 16 -14 21 -63
26 -33 4 -69 9 -80 12 -11 3 -33 2 -49 -3z"/>
<path d="M6883 7539 c-15 -5 -23 -20 -28 -49 -4 -26 -3 -46 5 -55 7 -8 10 -20
8 -26 -3 -9 -48 -13 -154 -15 -107 -2 -173 -8 -234 -23 -47 -11 -108 -26 -137
-33 -28 -7 -55 -16 -59 -21 -4 -4 -40 -23 -80 -41 -40 -19 -96 -52 -126 -72
-29 -21 -86 -72 -126 -113 -40 -42 -92 -105 -116 -141 -23 -36 -66 -108 -96
-160 -29 -52 -57 -108 -61 -125 -4 -16 -15 -52 -24 -80 -9 -27 -23 -72 -32
-100 -9 -27 -24 -58 -34 -67 -10 -10 -21 -33 -24 -50 -4 -18 -2 -53 4 -78 6
-28 7 -93 2 -175 -5 -71 -9 -142 -10 -157 -1 -16 -2 -43 -3 -60 0 -18 4 -60
10 -93 6 -33 16 -87 21 -120 6 -33 17 -73 25 -90 8 -16 25 -55 37 -85 13 -30
40 -73 60 -96 20 -24 70 -72 111 -108 42 -36 125 -93 186 -126 110 -61 112
-62 207 -67 57 -3 110 0 132 7 21 6 56 18 78 27 22 8 63 25 90 36 28 12 61 29
74 39 13 10 38 18 56 18 18 0 44 -9 58 -20 13 -11 27 -30 31 -43 3 -12 43 -59
89 -102 46 -44 101 -92 123 -107 21 -15 52 -38 67 -50 24 -20 39 -23 98 -21
64 2 77 6 150 50 78 47 81 50 120 129 22 44 51 125 65 180 13 54 29 140 34
189 6 50 17 115 24 145 7 30 14 93 15 140 1 62 7 96 22 128 15 30 29 44 47 48
15 3 37 10 50 15 13 5 31 9 40 9 10 0 44 14 77 31 33 17 67 37 75 45 13 13 13
16 0 25 -8 5 -44 8 -80 6 -36 -2 -91 -10 -123 -18 -42 -10 -63 -10 -75 -3 -11
7 -17 25 -18 50 -1 22 -7 95 -14 164 -6 69 -18 143 -27 166 -8 22 -13 60 -11
84 3 37 7 45 27 50 16 4 29 17 37 40 7 19 13 48 13 63 1 17 -9 38 -24 53 -14
14 -33 24 -43 22 -12 -2 -17 -13 -17 -37 0 -19 -5 -36 -12 -38 -7 -3 -17 14
-24 39 -6 24 -16 54 -21 68 -6 14 -14 33 -19 42 -5 10 -9 27 -9 38 0 11 4 20
9 20 6 0 22 -16 37 -35 14 -19 32 -35 40 -35 7 0 15 9 19 19 3 10 -1 37 -9 60
-7 23 -12 50 -9 60 3 11 -1 30 -7 42 -7 13 -32 54 -57 91 -24 36 -73 93 -108
127 -54 50 -74 80 -120 174 -38 78 -70 128 -101 158 -44 43 -47 44 -112 45
-37 1 -77 -2 -89 -7z m-105 -230 c26 -6 65 -20 88 -30 31 -15 47 -31 67 -72
15 -29 32 -79 38 -112 6 -33 20 -91 31 -130 10 -38 25 -92 32 -120 8 -27 20
-72 27 -100 6 -27 14 -68 16 -90 2 -22 7 -47 10 -55 4 -8 13 -40 20 -70 8 -30
16 -75 18 -100 1 -25 8 -76 15 -115 7 -38 15 -131 19 -205 6 -102 4 -138 -5
-145 -7 -7 -61 -10 -136 -9 -67 2 -159 7 -203 12 -45 5 -90 14 -102 21 -12 6
-37 11 -55 11 -18 0 -64 9 -103 21 -38 11 -106 34 -150 51 -44 16 -127 50
-185 74 -57 24 -134 63 -170 86 -36 23 -82 55 -102 71 -25 19 -38 37 -38 52 0
13 9 70 21 127 12 57 25 119 29 138 5 19 13 49 18 65 5 17 17 44 26 60 9 17
16 37 16 46 0 9 25 62 56 119 30 56 74 122 97 145 23 24 62 65 87 91 32 34 74
63 143 96 78 39 117 51 190 62 51 7 102 14 115 15 13 0 44 -4 70 -10z m-778
-1426 c47 -47 183 -183 304 -302 120 -119 225 -226 234 -239 14 -21 13 -25 -7
-46 -13 -14 -54 -33 -97 -46 -61 -18 -89 -21 -142 -15 -37 3 -84 11 -105 17
-20 6 -63 35 -96 64 -32 29 -77 84 -99 122 -23 38 -50 98 -61 133 -11 35 -26
105 -35 154 -9 50 -16 124 -16 166 0 42 3 79 6 82 4 4 12 4 18 1 6 -4 49 -45
96 -91z m310 62 c19 -7 76 -22 125 -34 50 -12 100 -27 111 -33 12 -6 57 -10
100 -10 53 0 87 -5 103 -16 19 -11 66 -16 210 -19 102 -2 190 -8 195 -13 6 -6
5 -74 -2 -187 -7 -98 -12 -216 -12 -263 -1 -47 -5 -105 -11 -130 -6 -25 -14
-72 -20 -105 -5 -33 -17 -68 -27 -77 -17 -17 -19 -17 -60 3 -23 12 -61 40 -85
63 -23 23 -77 73 -121 111 l-78 69 6 49 7 49 -43 -6 c-42 -6 -45 -5 -104 51
-34 32 -79 74 -100 93 -22 19 -53 51 -70 70 -17 19 -51 53 -76 76 -25 22 -47
44 -49 50 -2 5 -22 24 -44 43 -22 19 -66 63 -98 99 -48 52 -56 66 -46 78 10
12 27 14 83 9 39 -4 87 -12 106 -20z"/>
<path d="M24360 4740 c-102 -5 -212 -11 -245 -14 -33 -3 -103 -10 -155 -15
-52 -5 -144 -14 -205 -20 -60 -6 -141 -18 -180 -26 -38 -7 -99 -17 -135 -20
-36 -4 -94 -13 -130 -22 -36 -9 -96 -22 -135 -30 -38 -7 -92 -18 -120 -23 -27
-4 -108 -24 -180 -43 -71 -19 -143 -40 -160 -45 -16 -5 -59 -19 -95 -31 -36
-12 -77 -21 -91 -21 -15 0 -32 -7 -39 -15 -7 -8 -22 -15 -34 -15 -12 0 -31 -7
-42 -15 -10 -8 -28 -15 -40 -15 -12 0 -50 -10 -85 -23 -35 -13 -93 -36 -129
-51 -36 -16 -85 -37 -110 -48 -25 -10 -53 -24 -63 -29 -9 -5 -43 -19 -75 -31
-31 -11 -64 -26 -72 -32 -8 -7 -26 -17 -40 -24 -14 -7 -32 -16 -40 -21 -8 -5
-40 -21 -70 -36 -30 -16 -88 -52 -129 -82 -40 -29 -79 -53 -86 -53 -7 0 -18
-7 -25 -15 -7 -8 -21 -15 -31 -15 -9 0 -24 -6 -31 -12 -7 -7 -31 -27 -53 -44
-22 -17 -65 -47 -95 -67 -30 -20 -71 -49 -90 -64 -20 -16 -75 -61 -122 -101
-48 -40 -123 -109 -167 -155 -44 -45 -111 -130 -150 -188 -39 -58 -71 -113
-71 -121 0 -8 -9 -23 -20 -33 -15 -13 -39 -19 -88 -21 -37 -1 -78 -5 -92 -8
-14 -3 -54 -8 -90 -10 -36 -3 -108 -9 -161 -15 -54 -6 -128 -16 -165 -22 -38
-6 -125 -13 -194 -14 -69 -2 -172 -6 -229 -9 -57 -4 -112 -11 -122 -16 -10 -6
-53 -17 -96 -25 -48 -9 -169 -17 -313 -21 -166 -4 -246 -10 -273 -20 -20 -8
-72 -14 -115 -14 -49 0 -83 -5 -91 -12 -8 -9 -54 -13 -144 -14 -73 -1 -232
-11 -353 -22 -122 -11 -230 -25 -240 -30 -11 -6 -116 -15 -234 -21 -118 -6
-244 -15 -280 -21 -36 -5 -108 -14 -160 -20 -52 -6 -135 -13 -185 -15 -49 -2
-133 -6 -185 -10 -52 -3 -111 -10 -130 -15 -19 -5 -111 -14 -205 -20 -93 -6
-192 -15 -220 -21 -27 -5 -90 -14 -140 -20 -49 -6 -117 -12 -150 -15 -33 -2
-82 -6 -110 -8 -27 -2 -66 -7 -85 -10 -19 -3 -91 -11 -160 -17 -69 -6 -156
-13 -195 -14 -38 -2 -92 -8 -120 -13 -27 -6 -89 -15 -136 -21 -57 -8 -96 -8
-112 -2 -17 7 -48 7 -89 0 -35 -5 -82 -14 -106 -19 -23 -6 -62 -10 -86 -10
-25 0 -57 -5 -73 -11 -15 -6 -91 -15 -168 -19 -77 -5 -216 -18 -310 -30 -93
-12 -204 -26 -245 -30 -41 -5 -94 -13 -116 -19 -23 -6 -68 -11 -100 -12 -33
-1 -81 -7 -109 -14 -27 -8 -117 -19 -200 -25 -82 -6 -184 -15 -225 -21 -41 -6
-93 -15 -115 -21 -22 -6 -69 -12 -105 -14 -36 -2 -97 -5 -135 -7 -39 -2 -97
-12 -129 -21 -32 -9 -81 -16 -109 -16 -29 1 -101 -3 -162 -10 -60 -7 -173 -15
-250 -18 -77 -4 -146 -11 -153 -15 -7 -5 -36 -10 -65 -12 -28 -2 -86 -7 -127
-10 -41 -3 -109 -10 -150 -15 -41 -5 -147 -16 -235 -25 -88 -9 -198 -21 -245
-27 -47 -6 -90 -15 -97 -20 -7 -6 -20 -5 -32 2 -16 8 -32 8 -64 -1 -23 -6 -80
-15 -127 -20 -47 -5 -141 -15 -210 -24 -69 -8 -147 -17 -175 -19 -27 -2 -115
-9 -195 -16 -80 -7 -153 -16 -162 -21 -9 -5 -61 -9 -115 -10 -54 0 -120 -5
-148 -10 -27 -5 -99 -14 -159 -19 -60 -5 -144 -14 -188 -20 -43 -6 -88 -8 -99
-5 -10 4 -34 2 -52 -4 -17 -6 -66 -16 -107 -22 -41 -7 -95 -13 -120 -14 -25
-1 -108 -8 -185 -14 -76 -7 -144 -15 -149 -19 -6 -3 -73 -12 -151 -19 -77 -7
-189 -17 -250 -22 -60 -5 -140 -14 -177 -20 -37 -6 -106 -14 -155 -17 -48 -3
-95 -10 -104 -15 -9 -4 -59 -11 -110 -13 -52 -3 -110 -9 -129 -15 -19 -5 -123
-14 -230 -20 -107 -7 -222 -16 -255 -21 -33 -6 -103 -17 -155 -26 -52 -9 -129
-20 -170 -25 -41 -4 -127 -12 -190 -18 -63 -6 -131 -15 -150 -20 -19 -6 -84
-13 -145 -16 -60 -4 -128 -11 -150 -17 -22 -5 -107 -16 -190 -23 -82 -8 -171
-18 -196 -24 -25 -5 -95 -15 -155 -21 -60 -6 -127 -15 -149 -20 -22 -6 -69
-12 -105 -14 -36 -2 -121 -11 -190 -20 -69 -9 -146 -16 -172 -16 -26 0 -57 -4
-70 -9 -13 -5 -48 -14 -78 -20 -30 -5 -91 -15 -135 -21 -44 -6 -138 -17 -210
-25 -71 -7 -159 -19 -195 -25 -36 -7 -90 -16 -120 -21 -30 -6 -66 -10 -80 -10
-14 -1 -61 -7 -105 -15 -44 -8 -118 -18 -165 -23 -47 -6 -134 -17 -195 -25
-60 -8 -146 -19 -190 -25 -44 -6 -87 -13 -96 -16 -8 -3 -81 -14 -160 -25 -79
-11 -169 -25 -199 -30 -30 -6 -107 -17 -170 -25 -63 -8 -164 -21 -225 -30 -60
-8 -130 -20 -155 -26 -25 -5 -79 -16 -120 -24 -41 -7 -102 -21 -135 -30 -33
-9 -89 -22 -125 -28 -36 -7 -65 -16 -65 -22 0 -5 16 -12 35 -16 19 -4 73 -3
120 2 47 5 104 14 128 19 23 6 60 10 81 10 22 0 51 4 65 10 14 5 85 14 158 20
73 6 156 16 183 21 28 6 88 14 135 19 47 5 123 13 170 20 47 6 135 17 195 25
61 8 130 18 155 21 25 3 101 14 170 25 69 11 163 24 210 29 47 6 114 15 150
21 36 5 108 14 160 19 52 5 122 14 154 20 33 7 94 15 135 20 42 5 175 22 296
38 121 17 247 34 280 38 33 5 67 7 75 6 8 -1 44 3 80 9 36 6 83 15 105 19 22
5 99 14 170 20 72 6 148 15 170 21 22 5 81 13 130 18 50 5 158 16 240 25 83 8
166 20 185 26 19 5 60 10 91 10 31 0 80 4 110 9 30 6 101 15 159 21 58 7 139
16 180 21 41 6 140 16 220 24 80 8 199 21 265 30 66 8 145 18 175 20 30 3 107
9 170 15 63 5 196 19 295 30 99 11 232 25 295 29 63 5 122 12 130 15 8 3 74
10 145 16 72 5 191 15 265 21 74 5 176 16 225 23 50 8 93 12 97 9 4 -2 34 0
65 6 32 5 114 12 182 15 69 4 152 11 185 16 34 6 122 18 196 26 74 9 180 20
235 25 55 4 163 14 240 23 77 9 183 21 235 26 52 6 147 15 210 20 63 4 144 13
179 20 35 6 70 9 77 6 8 -3 79 3 157 14 78 10 185 24 237 30 52 5 127 12 167
15 40 3 100 10 135 16 35 5 146 16 248 23 102 8 205 19 230 26 25 7 97 17 160
22 63 4 167 13 230 18 63 5 151 14 195 20 44 6 123 15 175 19 52 5 151 16 220
25 69 9 158 21 198 27 40 6 139 17 220 24 81 8 185 19 232 25 47 6 99 15 115
20 17 5 68 10 115 11 47 1 105 7 130 14 25 8 92 16 150 20 58 3 137 13 175 21
39 8 91 14 117 14 26 0 67 5 90 10 24 6 117 18 208 26 91 8 233 21 315 28 83
8 186 19 230 25 44 6 116 13 160 16 44 4 130 13 190 20 61 8 157 19 215 25 58
5 166 17 240 25 74 8 173 19 220 25 47 5 160 16 252 24 92 8 177 20 189 26 12
7 34 10 49 7 15 -3 56 -1 91 5 35 5 89 12 119 14 30 3 75 6 100 8 25 3 90 9
145 15 55 5 129 13 165 16 36 3 92 7 125 10 33 3 92 10 130 15 39 5 140 14
225 20 85 6 191 16 235 22 44 6 132 14 195 19 63 4 135 11 160 14 25 3 71 6
102 6 36 1 64 -4 78 -14 17 -12 41 -14 115 -10 85 5 95 4 123 -17 16 -12 35
-19 42 -15 6 4 15 17 20 30 8 20 20 24 97 34 48 7 98 16 111 22 13 5 49 9 81
9 33 0 71 -7 87 -15 18 -9 57 -15 99 -15 39 0 108 6 155 14 47 8 126 20 175
26 50 6 135 15 190 20 55 6 120 15 144 21 25 5 98 13 162 16 105 5 119 4 125
-11 3 -9 -1 -47 -11 -84 -11 -40 -19 -116 -21 -192 -1 -69 1 -162 7 -207 5
-45 16 -97 24 -117 8 -19 12 -41 10 -48 -3 -8 6 -45 20 -83 22 -58 24 -70 12
-82 -7 -8 -27 -22 -44 -31 -17 -9 -71 -38 -120 -64 -48 -26 -106 -61 -128 -77
-22 -17 -76 -49 -120 -72 -43 -23 -106 -58 -140 -79 -33 -20 -98 -60 -145 -89
-47 -29 -92 -59 -100 -67 -8 -7 -37 -32 -64 -55 -27 -22 -68 -52 -90 -67 -22
-14 -109 -94 -194 -178 -139 -140 -156 -160 -188 -231 -19 -43 -40 -89 -48
-103 -8 -14 -19 -49 -25 -79 -8 -38 -8 -64 -1 -92 6 -22 24 -58 40 -82 15 -23
46 -59 68 -80 21 -21 68 -55 103 -77 35 -21 88 -50 118 -65 30 -15 100 -36
155 -47 63 -12 168 -21 276 -25 137 -4 195 -2 269 11 52 9 117 16 145 16 28 0
78 7 112 15 33 7 88 16 122 19 34 2 66 7 70 10 5 3 59 10 121 16 61 6 140 17
174 24 34 7 109 21 167 31 58 9 137 23 175 30 39 7 99 19 135 25 36 6 101 15
145 20 44 5 94 11 110 14 17 2 81 12 143 20 62 9 118 18 123 22 5 3 49 10 97
15 48 4 116 13 152 19 36 6 94 15 130 20 36 5 113 16 172 24 59 8 118 15 130
14 13 0 69 -4 125 -9 56 -5 114 -16 130 -24 15 -8 41 -15 57 -15 15 0 92 -9
170 -20 77 -10 209 -28 291 -40 83 -11 193 -22 245 -26 52 -3 102 -7 110 -10
8 -3 143 -8 300 -11 157 -2 407 -5 555 -6 149 -1 401 2 560 5 160 4 355 12
435 18 89 7 169 18 207 30 34 11 73 20 87 20 13 0 36 4 50 10 18 7 26 17 26
34 l0 25 -332 -1 c-183 -1 -376 1 -428 5 -52 3 -171 15 -265 26 -93 12 -195
23 -225 26 -30 3 -104 13 -165 21 -60 8 -138 19 -171 25 -34 5 -77 9 -97 9
-19 0 -77 9 -128 19 -52 11 -128 22 -169 26 -41 4 -92 13 -113 21 -20 8 -51
14 -67 14 -16 0 -32 5 -35 10 -4 6 -2 17 5 25 6 7 34 16 63 20 29 3 61 10 72
15 11 5 52 13 90 18 39 6 93 16 120 25 28 8 64 19 80 25 17 6 53 15 80 20 28
6 95 22 150 36 55 14 116 33 135 41 19 7 51 17 70 20 19 4 80 20 135 36 55 17
116 36 135 44 19 8 53 17 74 20 22 4 61 18 88 31 26 13 58 24 70 24 13 0 41
11 63 25 22 13 48 25 57 25 10 0 39 7 65 16 26 8 62 21 78 29 17 7 50 19 75
26 25 7 81 30 124 51 44 21 86 38 93 38 8 0 42 14 76 31 34 18 114 54 177 81
63 27 124 57 135 67 11 10 37 24 57 30 20 7 48 21 61 31 13 11 48 29 78 40 30
12 58 28 62 36 4 8 22 21 40 29 18 8 50 25 72 38 22 12 59 34 82 49 23 15 44
32 48 37 3 6 25 19 48 29 23 11 53 30 67 44 14 14 54 45 90 69 36 24 112 90
170 147 58 57 110 107 116 110 7 4 43 45 80 92 38 47 87 112 110 145 22 33 54
80 71 105 16 25 39 63 51 85 12 22 40 81 64 130 23 50 44 101 45 115 1 14 7
50 12 80 6 30 16 94 22 142 9 67 9 94 1 113 -7 14 -12 40 -12 57 0 18 -9 50
-19 72 -11 23 -27 61 -36 86 -9 25 -21 60 -26 78 -6 18 -17 36 -25 39 -8 3
-21 18 -29 32 -7 15 -26 43 -42 61 -15 19 -65 71 -110 117 -45 46 -86 83 -92
83 -5 0 -33 19 -63 43 -29 23 -68 53 -86 65 -19 13 -86 50 -150 82 -64 31
-148 70 -187 84 -38 15 -91 36 -117 47 -26 10 -55 19 -65 19 -11 0 -23 4 -28
9 -6 4 -35 16 -65 25 -30 10 -93 32 -140 50 -47 19 -119 39 -160 45 -41 6
-111 22 -155 36 -44 13 -106 28 -138 34 -31 6 -65 14 -75 19 -9 5 -36 10 -59
11 -23 0 -84 7 -135 15 -51 8 -122 18 -158 22 -36 4 -90 9 -120 11 -30 1 -113
7 -185 12 -71 5 -209 11 -305 14 -96 3 -258 2 -360 -3z m795 -80 c50 -5 140
-15 200 -20 61 -5 142 -15 180 -21 39 -6 106 -19 150 -29 44 -10 102 -22 129
-26 28 -4 73 -17 100 -30 28 -12 97 -30 153 -38 57 -8 124 -24 150 -36 26 -11
85 -30 132 -41 48 -12 97 -27 111 -34 14 -7 54 -24 90 -36 36 -13 135 -58 221
-101 86 -42 172 -87 190 -100 19 -13 69 -49 111 -81 43 -31 85 -69 95 -82 10
-14 40 -49 66 -78 27 -29 55 -59 62 -67 7 -8 16 -26 20 -39 4 -14 15 -32 25
-40 9 -9 28 -45 42 -81 14 -36 36 -94 48 -130 20 -58 22 -77 17 -185 -4 -76
-13 -142 -25 -180 -11 -33 -44 -112 -74 -175 -30 -63 -83 -158 -117 -210 -34
-52 -96 -133 -139 -180 -42 -47 -114 -121 -160 -165 -47 -44 -106 -96 -132
-115 -27 -19 -95 -69 -151 -110 -56 -41 -123 -86 -148 -100 -25 -14 -68 -41
-96 -61 -27 -19 -90 -58 -140 -86 -49 -28 -115 -63 -145 -77 -30 -13 -71 -34
-90 -45 -19 -11 -67 -35 -106 -55 -39 -19 -98 -43 -130 -54 -33 -11 -89 -34
-126 -51 -36 -17 -70 -31 -76 -31 -5 0 -42 -15 -83 -34 -41 -19 -117 -48 -169
-64 -52 -17 -133 -42 -180 -56 -47 -14 -130 -40 -185 -57 -55 -17 -125 -38
-155 -47 -30 -9 -64 -22 -75 -29 -11 -7 -32 -13 -47 -13 -15 0 -69 -11 -120
-25 -51 -13 -160 -42 -243 -63 -82 -22 -186 -46 -230 -55 -44 -9 -107 -21
-140 -28 -33 -6 -85 -15 -115 -19 -30 -4 -104 -17 -165 -29 -60 -12 -123 -26
-140 -31 -16 -5 -70 -12 -120 -15 -49 -3 -106 -10 -126 -15 -23 -7 -69 -7
-125 -1 -49 5 -129 17 -179 25 -49 9 -119 26 -155 37 -36 12 -81 27 -100 34
-19 8 -53 16 -75 20 -22 3 -69 17 -105 30 -36 13 -87 29 -115 35 -27 6 -113
31 -190 56 -77 25 -169 54 -205 66 -36 11 -69 24 -75 28 -5 4 -41 18 -80 30
-38 13 -106 40 -150 60 -44 21 -120 55 -169 76 -49 20 -125 61 -170 91 -44 29
-103 69 -131 89 -27 19 -81 58 -120 86 -38 27 -73 54 -76 60 -4 6 -39 44 -78
83 -48 50 -71 80 -71 96 0 13 6 31 13 40 7 8 57 36 112 61 55 25 116 51 135
58 19 7 42 19 50 26 8 6 32 19 54 28 21 9 46 16 56 16 9 0 28 8 41 19 13 10
49 26 79 36 30 10 62 23 70 30 8 8 67 30 130 50 63 20 147 50 185 65 39 16
124 48 190 70 66 23 135 45 152 50 18 4 48 17 66 28 20 11 45 18 58 15 14 -2
72 12 129 32 58 20 132 43 165 52 33 8 74 20 90 28 17 7 57 20 90 29 33 9 85
22 115 30 30 8 73 22 95 30 22 8 53 15 68 16 15 0 44 7 64 15 19 8 44 15 54
15 11 0 54 9 97 21 42 11 91 25 108 30 17 5 77 16 135 25 58 9 170 16 254 16
83 0 205 -3 271 -7 67 -4 177 -9 245 -12 68 -2 158 -6 199 -7 41 -2 161 -11
265 -20 105 -10 210 -19 235 -21 25 -2 70 -8 100 -14 30 -6 111 -12 179 -14
l124 -2 33 45 c19 25 39 56 45 70 6 14 7 41 4 60 -5 24 -22 49 -56 81 -27 25
-71 56 -97 69 -26 13 -69 37 -97 53 -27 16 -70 36 -95 44 -25 8 -72 19 -105
24 -33 6 -96 10 -140 10 -44 -1 -116 -6 -160 -12 -44 -6 -129 -19 -190 -29
-60 -11 -177 -33 -260 -49 -82 -17 -170 -35 -196 -41 -28 -7 -241 -12 -555
-15 -280 -2 -576 -6 -659 -9 -82 -3 -244 -7 -360 -10 -115 -4 -313 -9 -440
-12 -126 -4 -251 -6 -277 -5 -26 1 -76 -3 -112 -9 -36 -6 -136 -12 -223 -15
-87 -3 -194 -9 -238 -14 -44 -5 -161 -15 -261 -22 -99 -7 -189 -9 -198 -6 -17
7 -16 9 3 40 12 17 40 62 62 100 22 37 44 67 49 67 5 0 47 37 93 83 46 45 110
106 143 135 32 29 84 69 114 89 30 19 75 52 100 72 25 21 69 50 97 66 29 15
76 48 104 72 28 23 59 43 69 43 10 0 37 16 60 35 23 19 47 35 54 35 7 0 60 24
117 53 57 28 119 62 136 75 17 12 64 36 105 53 40 17 93 37 118 45 25 8 72 27
105 43 33 16 92 39 130 51 39 13 86 31 105 40 19 9 62 22 95 29 33 7 84 24
113 37 29 13 65 24 81 24 16 0 66 11 112 25 46 14 131 34 189 46 58 11 141 31
185 44 44 13 116 26 160 30 43 3 106 13 140 21 33 9 94 20 135 25 41 5 134 16
205 23 72 8 139 17 150 20 11 4 115 11 230 15 116 4 329 6 475 5 146 -2 306
-8 355 -14z m-195 -1429 c14 -4 25 -13 25 -21 0 -12 -17 -14 -95 -12 -52 1
-114 4 -138 6 -24 2 -46 7 -50 11 -4 3 0 10 8 15 8 6 62 9 120 9 58 -1 116 -4
130 -8z m-1972 -210 c8 -5 12 -17 10 -27 -2 -12 -15 -21 -38 -25 -19 -4 -57
-12 -85 -19 -27 -7 -57 -15 -65 -18 -8 -3 -44 -16 -80 -29 -36 -13 -81 -28
-100 -32 -19 -5 -46 -13 -60 -19 -14 -6 -79 -27 -145 -47 -66 -21 -154 -48
-195 -62 -41 -14 -79 -28 -85 -33 -5 -4 -27 -11 -49 -14 -21 -4 -46 -11 -55
-16 -9 -5 -38 -19 -64 -30 -26 -12 -87 -32 -135 -47 -48 -14 -109 -31 -137
-38 -27 -7 -88 -29 -135 -49 -47 -20 -106 -41 -132 -47 -26 -6 -52 -17 -59
-25 -6 -8 -17 -14 -23 -14 -6 0 -36 -10 -67 -23 -31 -12 -69 -31 -85 -42 -16
-10 -47 -22 -69 -26 -22 -4 -62 -15 -90 -25 -27 -9 -57 -22 -65 -29 -8 -7 -46
-24 -83 -39 -38 -15 -77 -24 -87 -21 -10 3 -23 20 -30 38 -7 18 -21 55 -32 82
-11 28 -24 54 -29 60 -5 5 -9 17 -9 27 0 10 -6 29 -14 41 -8 12 -19 52 -25 88
-6 36 -11 118 -11 181 0 77 5 127 14 149 8 19 23 42 33 51 15 14 57 17 268 23
138 4 275 9 305 11 30 2 84 5 120 8 36 2 142 7 235 11 94 3 361 8 595 9 234 2
492 7 575 10 82 4 152 9 154 12 2 2 7 4 10 4 3 0 12 -4 19 -9z m-2360 -1070
c9 -11 22 -26 27 -33 6 -7 21 -29 35 -48 13 -19 44 -58 69 -86 25 -27 53 -59
62 -70 9 -10 42 -41 74 -69 32 -27 84 -72 116 -100 31 -27 98 -81 149 -119 51
-37 116 -78 144 -91 28 -13 105 -54 171 -92 66 -38 143 -79 172 -91 28 -12 56
-22 62 -22 6 0 43 -15 83 -33 40 -18 91 -41 113 -50 22 -8 76 -27 120 -42 44
-14 106 -33 138 -41 35 -10 57 -21 57 -30 0 -7 -10 -16 -22 -18 -13 -2 -72
-12 -133 -21 -60 -9 -148 -20 -195 -25 -47 -4 -128 -15 -180 -25 -52 -9 -125
-23 -161 -31 -37 -8 -78 -14 -91 -14 -13 0 -104 -14 -203 -31 -99 -17 -193
-31 -210 -31 -16 0 -71 -6 -122 -14 -50 -7 -142 -18 -205 -24 -62 -6 -135 -13
-163 -16 -27 -2 -57 -7 -65 -10 -8 -3 -87 -12 -175 -20 -88 -7 -225 -13 -305
-13 -80 0 -170 4 -200 9 -30 4 -71 13 -90 19 -19 5 -57 17 -85 26 -27 9 -75
28 -105 43 -34 17 -82 55 -127 102 -40 41 -79 91 -88 110 -15 34 -15 38 7 77
13 23 51 70 84 105 33 34 85 86 114 113 29 28 68 69 87 92 19 23 53 50 76 61
23 11 51 30 62 42 11 12 40 33 65 47 25 13 61 34 80 46 19 12 48 34 63 49 15
14 45 34 65 44 20 9 65 39 100 66 35 26 71 48 81 48 10 0 28 11 40 24 12 13
55 38 94 57 40 18 94 47 121 66 26 18 54 33 60 33 7 0 27 11 46 25 19 14 42
25 52 25 10 0 26 -9 36 -19z"/>
</g>
</svg>
